<mxfile host="app.diagrams.net" modified="2023-03-27T09:49:31.459Z" agent="Mozilla/5.0 (Windows NT 10.0; Win64; x64; rv:109.0) Gecko/20100101 Firefox/111.0" etag="NuMiPXaKF99GUBZh-9BZ" version="21.1.1" type="device">
  <diagram name="PÃ¡gina-1" id="cNVBBne0UZJrKu0ge-L6">
    <mxGraphModel dx="2868" dy="2661" grid="1" gridSize="10" guides="1" tooltips="1" connect="1" arrows="1" fold="1" page="1" pageScale="1" pageWidth="827" pageHeight="1169" math="0" shadow="0">
      <root>
        <mxCell id="0" />
        <mxCell id="1" parent="0" />
        <mxCell id="H3Spt6IJbEtDC_gUVyOY-45" value="&lt;div align=&quot;center&quot;&gt;&lt;br&gt;&lt;/div&gt;" style="rounded=0;whiteSpace=wrap;html=1;" vertex="1" parent="1">
          <mxGeometry x="1330" y="-70" width="1070" height="680" as="geometry" />
        </mxCell>
        <mxCell id="H3Spt6IJbEtDC_gUVyOY-64" value="" style="rounded=0;whiteSpace=wrap;html=1;fillColor=#fff2cc;gradientColor=#ffd966;strokeColor=#d6b656;" vertex="1" parent="1">
          <mxGeometry x="1680" y="50" width="330" height="480" as="geometry" />
        </mxCell>
        <mxCell id="H3Spt6IJbEtDC_gUVyOY-43" value="&lt;div align=&quot;center&quot;&gt;&lt;br&gt;&lt;/div&gt;" style="rounded=0;whiteSpace=wrap;html=1;" vertex="1" parent="1">
          <mxGeometry x="10" y="-70" width="1070" height="890" as="geometry" />
        </mxCell>
        <mxCell id="H3Spt6IJbEtDC_gUVyOY-29" value="" style="rounded=0;whiteSpace=wrap;html=1;fillColor=#e1d5e7;strokeColor=#9673a6;" vertex="1" parent="1">
          <mxGeometry x="30" y="490" width="810" height="150" as="geometry" />
        </mxCell>
        <mxCell id="H3Spt6IJbEtDC_gUVyOY-28" value="" style="rounded=0;whiteSpace=wrap;html=1;fillColor=#d5e8d4;strokeColor=#82b366;" vertex="1" parent="1">
          <mxGeometry x="30" y="320" width="810" height="150" as="geometry" />
        </mxCell>
        <mxCell id="H3Spt6IJbEtDC_gUVyOY-27" value="" style="rounded=0;whiteSpace=wrap;html=1;fillColor=#fff2cc;strokeColor=#d6b656;" vertex="1" parent="1">
          <mxGeometry x="80" y="140" width="710" height="150" as="geometry" />
        </mxCell>
        <mxCell id="H3Spt6IJbEtDC_gUVyOY-12" style="edgeStyle=orthogonalEdgeStyle;rounded=0;orthogonalLoop=1;jettySize=auto;html=1;entryX=0.563;entryY=0.067;entryDx=0;entryDy=0;entryPerimeter=0;" edge="1" parent="1" source="H3Spt6IJbEtDC_gUVyOY-1" target="H3Spt6IJbEtDC_gUVyOY-4">
          <mxGeometry relative="1" as="geometry" />
        </mxCell>
        <mxCell id="H3Spt6IJbEtDC_gUVyOY-15" style="edgeStyle=orthogonalEdgeStyle;rounded=0;orthogonalLoop=1;jettySize=auto;html=1;entryX=0.413;entryY=0.1;entryDx=0;entryDy=0;entryPerimeter=0;" edge="1" parent="1" source="H3Spt6IJbEtDC_gUVyOY-1" target="H3Spt6IJbEtDC_gUVyOY-5">
          <mxGeometry relative="1" as="geometry" />
        </mxCell>
        <mxCell id="H3Spt6IJbEtDC_gUVyOY-1" value="&lt;div&gt;&amp;lt;&amp;lt;Controller&amp;gt;&amp;gt;&lt;/div&gt;&lt;div&gt;Trip&lt;/div&gt;" style="ellipse;shape=umlControl;whiteSpace=wrap;html=1;fillColor=#b0e3e6;strokeColor=#0e8088;" vertex="1" parent="1">
          <mxGeometry x="130" y="160" width="100" height="110" as="geometry" />
        </mxCell>
        <mxCell id="H3Spt6IJbEtDC_gUVyOY-16" style="edgeStyle=orthogonalEdgeStyle;rounded=0;orthogonalLoop=1;jettySize=auto;html=1;entryX=0.513;entryY=0.211;entryDx=0;entryDy=0;entryPerimeter=0;" edge="1" parent="1" source="H3Spt6IJbEtDC_gUVyOY-2" target="H3Spt6IJbEtDC_gUVyOY-6">
          <mxGeometry relative="1" as="geometry" />
        </mxCell>
        <mxCell id="H3Spt6IJbEtDC_gUVyOY-2" value="&lt;div&gt;&amp;lt;&amp;lt;Controller&amp;gt;&amp;gt;&lt;/div&gt;&lt;div&gt;Rider&lt;br&gt;&lt;/div&gt;" style="ellipse;shape=umlControl;whiteSpace=wrap;html=1;fillColor=#fad9d5;strokeColor=#ae4132;" vertex="1" parent="1">
          <mxGeometry x="414" y="155" width="110" height="110" as="geometry" />
        </mxCell>
        <mxCell id="H3Spt6IJbEtDC_gUVyOY-17" style="edgeStyle=orthogonalEdgeStyle;rounded=0;orthogonalLoop=1;jettySize=auto;html=1;" edge="1" parent="1" source="H3Spt6IJbEtDC_gUVyOY-3" target="H3Spt6IJbEtDC_gUVyOY-7">
          <mxGeometry relative="1" as="geometry" />
        </mxCell>
        <mxCell id="H3Spt6IJbEtDC_gUVyOY-3" value="&lt;div&gt;&amp;lt;&amp;lt;Controller&amp;gt;&amp;gt;&lt;/div&gt;&lt;div&gt;Driver&lt;/div&gt;" style="ellipse;shape=umlControl;whiteSpace=wrap;html=1;fillColor=#ffcd28;strokeColor=#d79b00;gradientColor=#ffa500;" vertex="1" parent="1">
          <mxGeometry x="645" y="155" width="110" height="120" as="geometry" />
        </mxCell>
        <mxCell id="H3Spt6IJbEtDC_gUVyOY-13" style="edgeStyle=orthogonalEdgeStyle;rounded=0;orthogonalLoop=1;jettySize=auto;html=1;entryX=0.444;entryY=0.025;entryDx=0;entryDy=0;entryPerimeter=0;" edge="1" parent="1" source="H3Spt6IJbEtDC_gUVyOY-4" target="H3Spt6IJbEtDC_gUVyOY-39">
          <mxGeometry relative="1" as="geometry">
            <mxPoint x="254.4000000000001" y="524.9000000000001" as="targetPoint" />
          </mxGeometry>
        </mxCell>
        <mxCell id="H3Spt6IJbEtDC_gUVyOY-20" style="edgeStyle=orthogonalEdgeStyle;rounded=0;orthogonalLoop=1;jettySize=auto;html=1;" edge="1" parent="1" source="H3Spt6IJbEtDC_gUVyOY-4" target="H3Spt6IJbEtDC_gUVyOY-6">
          <mxGeometry relative="1" as="geometry" />
        </mxCell>
        <mxCell id="H3Spt6IJbEtDC_gUVyOY-21" style="edgeStyle=orthogonalEdgeStyle;rounded=0;orthogonalLoop=1;jettySize=auto;html=1;" edge="1" parent="1" source="H3Spt6IJbEtDC_gUVyOY-4">
          <mxGeometry relative="1" as="geometry">
            <mxPoint x="150" y="405" as="targetPoint" />
          </mxGeometry>
        </mxCell>
        <mxCell id="H3Spt6IJbEtDC_gUVyOY-22" style="edgeStyle=orthogonalEdgeStyle;rounded=0;orthogonalLoop=1;jettySize=auto;html=1;" edge="1" parent="1" source="H3Spt6IJbEtDC_gUVyOY-4" target="H3Spt6IJbEtDC_gUVyOY-7">
          <mxGeometry relative="1" as="geometry">
            <Array as="points">
              <mxPoint x="250" y="330" />
              <mxPoint x="640" y="330" />
              <mxPoint x="640" y="405" />
            </Array>
          </mxGeometry>
        </mxCell>
        <mxCell id="H3Spt6IJbEtDC_gUVyOY-4" value="&lt;div&gt;&amp;lt;&amp;lt;service&amp;gt;&amp;gt;&lt;/div&gt;&lt;div&gt;Trip&lt;br&gt;&lt;/div&gt;" style="ellipse;shape=umlControl;whiteSpace=wrap;html=1;fillColor=#b0e3e6;strokeColor=#0e8088;" vertex="1" parent="1">
          <mxGeometry x="210" y="360" width="80" height="90" as="geometry" />
        </mxCell>
        <mxCell id="H3Spt6IJbEtDC_gUVyOY-14" style="edgeStyle=orthogonalEdgeStyle;rounded=0;orthogonalLoop=1;jettySize=auto;html=1;entryX=0.5;entryY=0;entryDx=0;entryDy=0;" edge="1" parent="1" source="H3Spt6IJbEtDC_gUVyOY-5" target="H3Spt6IJbEtDC_gUVyOY-38">
          <mxGeometry relative="1" as="geometry">
            <mxPoint x="100" y="533" as="targetPoint" />
          </mxGeometry>
        </mxCell>
        <mxCell id="H3Spt6IJbEtDC_gUVyOY-5" value="&lt;div&gt;&amp;lt;&amp;lt;service&amp;gt;&amp;gt;&lt;/div&gt;&lt;div&gt;Invoice&lt;br&gt;&lt;/div&gt;" style="ellipse;shape=umlControl;whiteSpace=wrap;html=1;fillColor=#b0e3e6;strokeColor=#0e8088;" vertex="1" parent="1">
          <mxGeometry x="60" y="360" width="80" height="90" as="geometry" />
        </mxCell>
        <mxCell id="H3Spt6IJbEtDC_gUVyOY-18" style="edgeStyle=orthogonalEdgeStyle;rounded=0;orthogonalLoop=1;jettySize=auto;html=1;entryX=0.5;entryY=0;entryDx=0;entryDy=0;" edge="1" parent="1" source="H3Spt6IJbEtDC_gUVyOY-6" target="H3Spt6IJbEtDC_gUVyOY-40">
          <mxGeometry relative="1" as="geometry">
            <mxPoint x="467.971" y="522" as="targetPoint" />
          </mxGeometry>
        </mxCell>
        <mxCell id="H3Spt6IJbEtDC_gUVyOY-6" value="&lt;div&gt;&amp;lt;&amp;lt;service&amp;gt;&amp;gt;&lt;/div&gt;&lt;div&gt;Rider&lt;br&gt;&lt;/div&gt;" style="ellipse;shape=umlControl;whiteSpace=wrap;html=1;fillColor=#fad9d5;strokeColor=#ae4132;" vertex="1" parent="1">
          <mxGeometry x="429" y="360" width="80" height="90" as="geometry" />
        </mxCell>
        <mxCell id="H3Spt6IJbEtDC_gUVyOY-19" style="edgeStyle=orthogonalEdgeStyle;rounded=0;orthogonalLoop=1;jettySize=auto;html=1;entryX=0.5;entryY=0;entryDx=0;entryDy=0;" edge="1" parent="1" source="H3Spt6IJbEtDC_gUVyOY-7" target="H3Spt6IJbEtDC_gUVyOY-41">
          <mxGeometry relative="1" as="geometry">
            <mxPoint x="690" y="530" as="targetPoint" />
          </mxGeometry>
        </mxCell>
        <mxCell id="H3Spt6IJbEtDC_gUVyOY-7" value="&lt;div&gt;&amp;lt;&amp;lt;service&amp;gt;&amp;gt;&lt;/div&gt;&lt;div&gt;Driver&lt;br&gt;&lt;/div&gt;" style="ellipse;shape=umlControl;whiteSpace=wrap;html=1;fillColor=#ffcd28;strokeColor=#d79b00;gradientColor=#ffa500;" vertex="1" parent="1">
          <mxGeometry x="660" y="360" width="80" height="90" as="geometry" />
        </mxCell>
        <mxCell id="H3Spt6IJbEtDC_gUVyOY-32" style="edgeStyle=orthogonalEdgeStyle;rounded=0;orthogonalLoop=1;jettySize=auto;html=1;" edge="1" parent="1">
          <mxGeometry relative="1" as="geometry">
            <mxPoint x="390" y="760" as="targetPoint" />
            <mxPoint x="250" y="625" as="sourcePoint" />
            <Array as="points">
              <mxPoint x="250" y="760" />
            </Array>
          </mxGeometry>
        </mxCell>
        <mxCell id="H3Spt6IJbEtDC_gUVyOY-31" style="edgeStyle=orthogonalEdgeStyle;rounded=0;orthogonalLoop=1;jettySize=auto;html=1;entryX=0;entryY=0.5;entryDx=0;entryDy=0;entryPerimeter=0;exitX=0.5;exitY=1;exitDx=0;exitDy=0;" edge="1" parent="1" source="H3Spt6IJbEtDC_gUVyOY-38" target="H3Spt6IJbEtDC_gUVyOY-30">
          <mxGeometry relative="1" as="geometry">
            <mxPoint x="110" y="620" as="sourcePoint" />
            <Array as="points">
              <mxPoint x="110" y="615" />
              <mxPoint x="110" y="760" />
            </Array>
          </mxGeometry>
        </mxCell>
        <mxCell id="H3Spt6IJbEtDC_gUVyOY-33" style="edgeStyle=orthogonalEdgeStyle;rounded=0;orthogonalLoop=1;jettySize=auto;html=1;entryX=0.5;entryY=0;entryDx=0;entryDy=0;entryPerimeter=0;exitX=0.5;exitY=1;exitDx=0;exitDy=0;" edge="1" parent="1" source="H3Spt6IJbEtDC_gUVyOY-40" target="H3Spt6IJbEtDC_gUVyOY-30">
          <mxGeometry relative="1" as="geometry">
            <mxPoint x="464.5" y="620" as="sourcePoint" />
          </mxGeometry>
        </mxCell>
        <mxCell id="H3Spt6IJbEtDC_gUVyOY-34" style="edgeStyle=orthogonalEdgeStyle;rounded=0;orthogonalLoop=1;jettySize=auto;html=1;entryX=1.01;entryY=0.57;entryDx=0;entryDy=0;entryPerimeter=0;exitX=0.5;exitY=1;exitDx=0;exitDy=0;" edge="1" parent="1" source="H3Spt6IJbEtDC_gUVyOY-41" target="H3Spt6IJbEtDC_gUVyOY-30">
          <mxGeometry relative="1" as="geometry">
            <mxPoint x="695" y="620" as="sourcePoint" />
            <Array as="points">
              <mxPoint x="695" y="620" />
              <mxPoint x="695" y="770" />
              <mxPoint x="499" y="770" />
            </Array>
          </mxGeometry>
        </mxCell>
        <mxCell id="H3Spt6IJbEtDC_gUVyOY-24" style="edgeStyle=orthogonalEdgeStyle;rounded=0;orthogonalLoop=1;jettySize=auto;html=1;entryX=0.54;entryY=0.136;entryDx=0;entryDy=0;entryPerimeter=0;" edge="1" parent="1" source="H3Spt6IJbEtDC_gUVyOY-23" target="H3Spt6IJbEtDC_gUVyOY-1">
          <mxGeometry relative="1" as="geometry" />
        </mxCell>
        <mxCell id="H3Spt6IJbEtDC_gUVyOY-25" style="edgeStyle=orthogonalEdgeStyle;rounded=0;orthogonalLoop=1;jettySize=auto;html=1;entryX=0.418;entryY=0.155;entryDx=0;entryDy=0;entryPerimeter=0;" edge="1" parent="1" source="H3Spt6IJbEtDC_gUVyOY-23" target="H3Spt6IJbEtDC_gUVyOY-2">
          <mxGeometry relative="1" as="geometry" />
        </mxCell>
        <mxCell id="H3Spt6IJbEtDC_gUVyOY-26" style="edgeStyle=orthogonalEdgeStyle;rounded=0;orthogonalLoop=1;jettySize=auto;html=1;entryX=0.591;entryY=0.125;entryDx=0;entryDy=0;entryPerimeter=0;" edge="1" parent="1" source="H3Spt6IJbEtDC_gUVyOY-23" target="H3Spt6IJbEtDC_gUVyOY-3">
          <mxGeometry relative="1" as="geometry" />
        </mxCell>
        <mxCell id="H3Spt6IJbEtDC_gUVyOY-23" value="" style="sketch=0;outlineConnect=0;fontColor=#232F3E;gradientColor=none;fillColor=#232F3D;strokeColor=none;dashed=0;verticalLabelPosition=bottom;verticalAlign=top;align=center;html=1;fontSize=12;fontStyle=0;aspect=fixed;pointerEvents=1;shape=mxgraph.aws4.client;" vertex="1" parent="1">
          <mxGeometry x="420" width="78" height="76" as="geometry" />
        </mxCell>
        <mxCell id="H3Spt6IJbEtDC_gUVyOY-30" value="&lt;div&gt;&amp;lt;&amp;lt;PostgresDB&amp;gt;&amp;gt;&lt;/div&gt;&lt;div&gt;wuber&lt;br&gt;&lt;/div&gt;" style="strokeWidth=2;html=1;shape=mxgraph.flowchart.database;whiteSpace=wrap;fillColor=#f5f5f5;gradientColor=#b3b3b3;strokeColor=#666666;" vertex="1" parent="1">
          <mxGeometry x="393" y="710" width="105" height="100" as="geometry" />
        </mxCell>
        <mxCell id="H3Spt6IJbEtDC_gUVyOY-35" value="&lt;font style=&quot;font-size: 27px;&quot;&gt;Controller layer&lt;/font&gt;" style="text;html=1;strokeColor=none;fillColor=none;align=center;verticalAlign=middle;whiteSpace=wrap;rounded=0;" vertex="1" parent="1">
          <mxGeometry x="830" y="185" width="170" height="60" as="geometry" />
        </mxCell>
        <mxCell id="H3Spt6IJbEtDC_gUVyOY-36" value="&lt;font style=&quot;font-size: 27px;&quot;&gt;Service layer&lt;/font&gt;" style="text;html=1;strokeColor=none;fillColor=none;align=center;verticalAlign=middle;whiteSpace=wrap;rounded=0;" vertex="1" parent="1">
          <mxGeometry x="870" y="365" width="170" height="60" as="geometry" />
        </mxCell>
        <mxCell id="H3Spt6IJbEtDC_gUVyOY-37" value="&lt;font style=&quot;font-size: 27px;&quot;&gt;DAO layer&lt;/font&gt;" style="text;html=1;strokeColor=none;fillColor=none;align=center;verticalAlign=middle;whiteSpace=wrap;rounded=0;" vertex="1" parent="1">
          <mxGeometry x="870" y="535" width="170" height="60" as="geometry" />
        </mxCell>
        <mxCell id="H3Spt6IJbEtDC_gUVyOY-38" value="&lt;div&gt;&amp;lt;&amp;lt;Repository&amp;gt;&amp;gt;&lt;/div&gt;&lt;div&gt;Invoice&lt;br&gt;&lt;/div&gt;" style="ellipse;shape=umlEntity;whiteSpace=wrap;html=1;fillColor=#b0e3e6;strokeColor=#0e8088;" vertex="1" parent="1">
          <mxGeometry x="55" y="535" width="95" height="85" as="geometry" />
        </mxCell>
        <mxCell id="H3Spt6IJbEtDC_gUVyOY-39" value="&lt;div&gt;&amp;lt;&amp;lt;Repository&amp;gt;&amp;gt;&lt;/div&gt;Trip" style="ellipse;shape=umlEntity;whiteSpace=wrap;html=1;fillColor=#b0e3e6;strokeColor=#0e8088;" vertex="1" parent="1">
          <mxGeometry x="200" y="535" width="90" height="85" as="geometry" />
        </mxCell>
        <mxCell id="H3Spt6IJbEtDC_gUVyOY-40" value="&lt;div&gt;&lt;div&gt;&amp;lt;&amp;lt;Repository&amp;gt;&amp;gt;&lt;/div&gt;Rider&lt;/div&gt;" style="ellipse;shape=umlEntity;whiteSpace=wrap;html=1;fillColor=#fad9d5;strokeColor=#ae4132;" vertex="1" parent="1">
          <mxGeometry x="421" y="519.38" width="96" height="91.25" as="geometry" />
        </mxCell>
        <mxCell id="H3Spt6IJbEtDC_gUVyOY-41" value="&lt;div&gt;&amp;lt;&amp;lt;Repository&amp;gt;&amp;gt;&lt;/div&gt;Driver" style="ellipse;shape=umlEntity;whiteSpace=wrap;html=1;fillColor=#ffcd28;gradientColor=#ffa500;strokeColor=#d79b00;" vertex="1" parent="1">
          <mxGeometry x="652.5" y="532.5" width="95" height="87.5" as="geometry" />
        </mxCell>
        <mxCell id="H3Spt6IJbEtDC_gUVyOY-44" value="&lt;font style=&quot;font-size: 31px;&quot;&gt;Estructural Diagram&lt;/font&gt;" style="text;html=1;strokeColor=none;fillColor=none;align=center;verticalAlign=middle;whiteSpace=wrap;rounded=0;" vertex="1" parent="1">
          <mxGeometry x="334" y="-60" width="422" height="30" as="geometry" />
        </mxCell>
        <mxCell id="H3Spt6IJbEtDC_gUVyOY-46" value="&lt;font style=&quot;font-size: 31px;&quot;&gt;Logical Diagram&lt;/font&gt;" style="text;html=1;strokeColor=none;fillColor=none;align=center;verticalAlign=middle;whiteSpace=wrap;rounded=0;" vertex="1" parent="1">
          <mxGeometry x="1654" y="-60" width="422" height="30" as="geometry" />
        </mxCell>
        <mxCell id="H3Spt6IJbEtDC_gUVyOY-48" value="&lt;div&gt;&amp;lt;&amp;lt;Interface&amp;gt;&amp;gt;&lt;/div&gt;&lt;div&gt;Wompi&lt;br&gt;&lt;/div&gt;" style="image;aspect=fixed;perimeter=ellipsePerimeter;html=1;align=center;shadow=0;dashed=0;spacingTop=3;image=img/lib/active_directory/interface.svg;" vertex="1" parent="1">
          <mxGeometry x="2140" y="245" width="103.19" height="48.5" as="geometry" />
        </mxCell>
        <mxCell id="H3Spt6IJbEtDC_gUVyOY-61" style="edgeStyle=orthogonalEdgeStyle;rounded=0;orthogonalLoop=1;jettySize=auto;html=1;exitX=1;exitY=0.5;exitDx=0;exitDy=0;" edge="1" parent="1" source="H3Spt6IJbEtDC_gUVyOY-49" target="H3Spt6IJbEtDC_gUVyOY-48">
          <mxGeometry relative="1" as="geometry">
            <Array as="points">
              <mxPoint x="1960" y="155" />
              <mxPoint x="1960" y="260" />
            </Array>
          </mxGeometry>
        </mxCell>
        <mxCell id="H3Spt6IJbEtDC_gUVyOY-62" style="edgeStyle=orthogonalEdgeStyle;rounded=0;orthogonalLoop=1;jettySize=auto;html=1;" edge="1" parent="1" source="H3Spt6IJbEtDC_gUVyOY-49" target="H3Spt6IJbEtDC_gUVyOY-53">
          <mxGeometry relative="1" as="geometry" />
        </mxCell>
        <mxCell id="H3Spt6IJbEtDC_gUVyOY-63" style="edgeStyle=orthogonalEdgeStyle;rounded=0;orthogonalLoop=1;jettySize=auto;html=1;" edge="1" parent="1" source="H3Spt6IJbEtDC_gUVyOY-49" target="H3Spt6IJbEtDC_gUVyOY-51">
          <mxGeometry relative="1" as="geometry">
            <Array as="points">
              <mxPoint x="1960" y="155" />
              <mxPoint x="1960" y="445" />
            </Array>
          </mxGeometry>
        </mxCell>
        <mxCell id="H3Spt6IJbEtDC_gUVyOY-49" value="&lt;b&gt;&lt;font style=&quot;font-size: 27px;&quot;&gt;Trip&lt;/font&gt;&lt;/b&gt;" style="html=1;dropTarget=0;whiteSpace=wrap;fillColor=#b0e3e6;strokeColor=#0e8088;" vertex="1" parent="1">
          <mxGeometry x="1740" y="110" width="180" height="90" as="geometry" />
        </mxCell>
        <mxCell id="H3Spt6IJbEtDC_gUVyOY-50" value="" style="shape=module;jettyWidth=8;jettyHeight=4;" vertex="1" parent="H3Spt6IJbEtDC_gUVyOY-49">
          <mxGeometry x="1" width="20" height="20" relative="1" as="geometry">
            <mxPoint x="-27" y="7" as="offset" />
          </mxGeometry>
        </mxCell>
        <mxCell id="H3Spt6IJbEtDC_gUVyOY-51" value="&lt;b&gt;&lt;font style=&quot;font-size: 27px;&quot;&gt;Driver&lt;/font&gt;&lt;/b&gt;" style="html=1;dropTarget=0;whiteSpace=wrap;fillColor=#ffcd28;gradientColor=#ffa500;strokeColor=#d79b00;" vertex="1" parent="1">
          <mxGeometry x="1740" y="400" width="180" height="90" as="geometry" />
        </mxCell>
        <mxCell id="H3Spt6IJbEtDC_gUVyOY-52" value="" style="shape=module;jettyWidth=8;jettyHeight=4;" vertex="1" parent="H3Spt6IJbEtDC_gUVyOY-51">
          <mxGeometry x="1" width="20" height="20" relative="1" as="geometry">
            <mxPoint x="-27" y="7" as="offset" />
          </mxGeometry>
        </mxCell>
        <mxCell id="H3Spt6IJbEtDC_gUVyOY-66" style="edgeStyle=orthogonalEdgeStyle;rounded=0;orthogonalLoop=1;jettySize=auto;html=1;" edge="1" parent="1" source="H3Spt6IJbEtDC_gUVyOY-53" target="H3Spt6IJbEtDC_gUVyOY-48">
          <mxGeometry relative="1" as="geometry" />
        </mxCell>
        <mxCell id="H3Spt6IJbEtDC_gUVyOY-53" value="&lt;font size=&quot;1&quot;&gt;&lt;b style=&quot;font-size: 27px;&quot;&gt;Rider&lt;/b&gt;&lt;/font&gt;" style="html=1;dropTarget=0;whiteSpace=wrap;fillColor=#fad9d5;strokeColor=#ae4132;" vertex="1" parent="1">
          <mxGeometry x="1740" y="241.5" width="180" height="90" as="geometry" />
        </mxCell>
        <mxCell id="H3Spt6IJbEtDC_gUVyOY-54" value="" style="shape=module;jettyWidth=8;jettyHeight=4;" vertex="1" parent="H3Spt6IJbEtDC_gUVyOY-53">
          <mxGeometry x="1" width="20" height="20" relative="1" as="geometry">
            <mxPoint x="-27" y="7" as="offset" />
          </mxGeometry>
        </mxCell>
        <mxCell id="H3Spt6IJbEtDC_gUVyOY-58" style="edgeStyle=orthogonalEdgeStyle;rounded=0;orthogonalLoop=1;jettySize=auto;html=1;" edge="1" parent="1" source="H3Spt6IJbEtDC_gUVyOY-57" target="H3Spt6IJbEtDC_gUVyOY-53">
          <mxGeometry relative="1" as="geometry" />
        </mxCell>
        <mxCell id="H3Spt6IJbEtDC_gUVyOY-59" style="edgeStyle=orthogonalEdgeStyle;rounded=0;orthogonalLoop=1;jettySize=auto;html=1;entryX=-0.015;entryY=0.6;entryDx=0;entryDy=0;entryPerimeter=0;" edge="1" parent="1" source="H3Spt6IJbEtDC_gUVyOY-57" target="H3Spt6IJbEtDC_gUVyOY-49">
          <mxGeometry relative="1" as="geometry">
            <Array as="points">
              <mxPoint x="1630" y="287" />
              <mxPoint x="1630" y="170" />
              <mxPoint x="1737" y="170" />
            </Array>
          </mxGeometry>
        </mxCell>
        <mxCell id="H3Spt6IJbEtDC_gUVyOY-60" style="edgeStyle=orthogonalEdgeStyle;rounded=0;orthogonalLoop=1;jettySize=auto;html=1;entryX=0;entryY=0.5;entryDx=0;entryDy=0;" edge="1" parent="1" source="H3Spt6IJbEtDC_gUVyOY-57" target="H3Spt6IJbEtDC_gUVyOY-51">
          <mxGeometry relative="1" as="geometry">
            <Array as="points">
              <mxPoint x="1630" y="287" />
              <mxPoint x="1630" y="445" />
            </Array>
          </mxGeometry>
        </mxCell>
        <mxCell id="H3Spt6IJbEtDC_gUVyOY-57" value="" style="sketch=0;outlineConnect=0;fontColor=#232F3E;gradientColor=none;fillColor=#232F3D;strokeColor=none;dashed=0;verticalLabelPosition=bottom;verticalAlign=top;align=center;html=1;fontSize=12;fontStyle=0;aspect=fixed;pointerEvents=1;shape=mxgraph.aws4.client;" vertex="1" parent="1">
          <mxGeometry x="1450" y="248.5" width="78" height="76" as="geometry" />
        </mxCell>
        <mxCell id="H3Spt6IJbEtDC_gUVyOY-65" value="&lt;font style=&quot;font-size: 27px;&quot;&gt;Wuber&lt;/font&gt;" style="text;html=1;strokeColor=none;fillColor=none;align=center;verticalAlign=middle;whiteSpace=wrap;rounded=0;" vertex="1" parent="1">
          <mxGeometry x="1767" y="60" width="126" height="30" as="geometry" />
        </mxCell>
        <mxCell id="H3Spt6IJbEtDC_gUVyOY-68" value="&lt;div align=&quot;center&quot;&gt;&lt;br&gt;&lt;/div&gt;" style="rounded=0;whiteSpace=wrap;html=1;" vertex="1" parent="1">
          <mxGeometry x="30" y="970" width="1790" height="860" as="geometry" />
        </mxCell>
        <mxCell id="H3Spt6IJbEtDC_gUVyOY-69" value="&lt;font style=&quot;font-size: 31px;&quot;&gt;DB Diagram&lt;/font&gt;" style="text;html=1;strokeColor=none;fillColor=none;align=center;verticalAlign=middle;whiteSpace=wrap;rounded=0;" vertex="1" parent="1">
          <mxGeometry x="714" y="1000" width="422" height="30" as="geometry" />
        </mxCell>
        <mxCell id="H3Spt6IJbEtDC_gUVyOY-70" value="Trip" style="swimlane;fontStyle=0;childLayout=stackLayout;horizontal=1;startSize=26;fillColor=#b0e3e6;horizontalStack=0;resizeParent=1;resizeParentMax=0;resizeLast=0;collapsible=1;marginBottom=0;whiteSpace=wrap;html=1;fontSize=27;strokeColor=#0e8088;" vertex="1" parent="1">
          <mxGeometry x="730" y="1151" width="280" height="286" as="geometry">
            <mxRectangle x="344" y="1180" width="60" height="30" as="alternateBounds" />
          </mxGeometry>
        </mxCell>
        <mxCell id="H3Spt6IJbEtDC_gUVyOY-71" value="+ id: number" style="text;strokeColor=none;fillColor=none;align=left;verticalAlign=top;spacingLeft=4;spacingRight=4;overflow=hidden;rotatable=0;points=[[0,0.5],[1,0.5]];portConstraint=eastwest;whiteSpace=wrap;html=1;fontSize=19;" vertex="1" parent="H3Spt6IJbEtDC_gUVyOY-70">
          <mxGeometry y="26" width="280" height="26" as="geometry" />
        </mxCell>
        <mxCell id="H3Spt6IJbEtDC_gUVyOY-72" value="+ startTime: timeStamp" style="text;strokeColor=none;fillColor=none;align=left;verticalAlign=top;spacingLeft=4;spacingRight=4;overflow=hidden;rotatable=0;points=[[0,0.5],[1,0.5]];portConstraint=eastwest;whiteSpace=wrap;html=1;fontSize=19;" vertex="1" parent="H3Spt6IJbEtDC_gUVyOY-70">
          <mxGeometry y="52" width="280" height="26" as="geometry" />
        </mxCell>
        <mxCell id="H3Spt6IJbEtDC_gUVyOY-73" value="+ endTime: timeStamp" style="text;strokeColor=none;fillColor=none;align=left;verticalAlign=top;spacingLeft=4;spacingRight=4;overflow=hidden;rotatable=0;points=[[0,0.5],[1,0.5]];portConstraint=eastwest;whiteSpace=wrap;html=1;fontSize=19;" vertex="1" parent="H3Spt6IJbEtDC_gUVyOY-70">
          <mxGeometry y="78" width="280" height="26" as="geometry" />
        </mxCell>
        <mxCell id="H3Spt6IJbEtDC_gUVyOY-75" value="+ startLat: number" style="text;strokeColor=none;fillColor=none;align=left;verticalAlign=top;spacingLeft=4;spacingRight=4;overflow=hidden;rotatable=0;points=[[0,0.5],[1,0.5]];portConstraint=eastwest;whiteSpace=wrap;html=1;fontSize=19;" vertex="1" parent="H3Spt6IJbEtDC_gUVyOY-70">
          <mxGeometry y="104" width="280" height="26" as="geometry" />
        </mxCell>
        <mxCell id="H3Spt6IJbEtDC_gUVyOY-78" value="+ startLong: number" style="text;strokeColor=none;fillColor=none;align=left;verticalAlign=top;spacingLeft=4;spacingRight=4;overflow=hidden;rotatable=0;points=[[0,0.5],[1,0.5]];portConstraint=eastwest;whiteSpace=wrap;html=1;fontSize=19;" vertex="1" parent="H3Spt6IJbEtDC_gUVyOY-70">
          <mxGeometry y="130" width="280" height="26" as="geometry" />
        </mxCell>
        <mxCell id="H3Spt6IJbEtDC_gUVyOY-79" value="+ endLat: number" style="text;strokeColor=none;fillColor=none;align=left;verticalAlign=top;spacingLeft=4;spacingRight=4;overflow=hidden;rotatable=0;points=[[0,0.5],[1,0.5]];portConstraint=eastwest;whiteSpace=wrap;html=1;fontSize=19;" vertex="1" parent="H3Spt6IJbEtDC_gUVyOY-70">
          <mxGeometry y="156" width="280" height="26" as="geometry" />
        </mxCell>
        <mxCell id="H3Spt6IJbEtDC_gUVyOY-80" value="+ endLong: number" style="text;strokeColor=none;fillColor=none;align=left;verticalAlign=top;spacingLeft=4;spacingRight=4;overflow=hidden;rotatable=0;points=[[0,0.5],[1,0.5]];portConstraint=eastwest;whiteSpace=wrap;html=1;fontSize=19;" vertex="1" parent="H3Spt6IJbEtDC_gUVyOY-70">
          <mxGeometry y="182" width="280" height="26" as="geometry" />
        </mxCell>
        <mxCell id="H3Spt6IJbEtDC_gUVyOY-81" value="+ driver: Driver" style="text;strokeColor=none;fillColor=none;align=left;verticalAlign=top;spacingLeft=4;spacingRight=4;overflow=hidden;rotatable=0;points=[[0,0.5],[1,0.5]];portConstraint=eastwest;whiteSpace=wrap;html=1;fontSize=19;" vertex="1" parent="H3Spt6IJbEtDC_gUVyOY-70">
          <mxGeometry y="208" width="280" height="26" as="geometry" />
        </mxCell>
        <mxCell id="H3Spt6IJbEtDC_gUVyOY-82" value="+ rider: Rider" style="text;strokeColor=none;fillColor=none;align=left;verticalAlign=top;spacingLeft=4;spacingRight=4;overflow=hidden;rotatable=0;points=[[0,0.5],[1,0.5]];portConstraint=eastwest;whiteSpace=wrap;html=1;fontSize=19;" vertex="1" parent="H3Spt6IJbEtDC_gUVyOY-70">
          <mxGeometry y="234" width="280" height="26" as="geometry" />
        </mxCell>
        <mxCell id="H3Spt6IJbEtDC_gUVyOY-83" value="+ invoice: Invoice" style="text;strokeColor=none;fillColor=none;align=left;verticalAlign=top;spacingLeft=4;spacingRight=4;overflow=hidden;rotatable=0;points=[[0,0.5],[1,0.5]];portConstraint=eastwest;whiteSpace=wrap;html=1;fontSize=19;" vertex="1" parent="H3Spt6IJbEtDC_gUVyOY-70">
          <mxGeometry y="260" width="280" height="26" as="geometry" />
        </mxCell>
        <mxCell id="H3Spt6IJbEtDC_gUVyOY-84" value="Driver" style="swimlane;fontStyle=0;childLayout=stackLayout;horizontal=1;startSize=26;fillColor=#fad9d5;horizontalStack=0;resizeParent=1;resizeParentMax=0;resizeLast=0;collapsible=1;marginBottom=0;whiteSpace=wrap;html=1;fontSize=27;strokeColor=#ae4132;" vertex="1" parent="1">
          <mxGeometry x="117" y="1190" width="400" height="190" as="geometry">
            <mxRectangle x="344" y="1180" width="60" height="30" as="alternateBounds" />
          </mxGeometry>
        </mxCell>
        <mxCell id="H3Spt6IJbEtDC_gUVyOY-85" value="+ id: number" style="text;strokeColor=none;fillColor=none;align=left;verticalAlign=top;spacingLeft=4;spacingRight=4;overflow=hidden;rotatable=0;points=[[0,0.5],[1,0.5]];portConstraint=eastwest;whiteSpace=wrap;html=1;fontSize=19;" vertex="1" parent="H3Spt6IJbEtDC_gUVyOY-84">
          <mxGeometry y="26" width="400" height="26" as="geometry" />
        </mxCell>
        <mxCell id="H3Spt6IJbEtDC_gUVyOY-86" value="+ name: varchar" style="text;strokeColor=none;fillColor=none;align=left;verticalAlign=top;spacingLeft=4;spacingRight=4;overflow=hidden;rotatable=0;points=[[0,0.5],[1,0.5]];portConstraint=eastwest;whiteSpace=wrap;html=1;fontSize=19;" vertex="1" parent="H3Spt6IJbEtDC_gUVyOY-84">
          <mxGeometry y="52" width="400" height="26" as="geometry" />
        </mxCell>
        <mxCell id="H3Spt6IJbEtDC_gUVyOY-88" value="+ currentLat: number" style="text;strokeColor=none;fillColor=none;align=left;verticalAlign=top;spacingLeft=4;spacingRight=4;overflow=hidden;rotatable=0;points=[[0,0.5],[1,0.5]];portConstraint=eastwest;whiteSpace=wrap;html=1;fontSize=19;" vertex="1" parent="H3Spt6IJbEtDC_gUVyOY-84">
          <mxGeometry y="78" width="400" height="26" as="geometry" />
        </mxCell>
        <mxCell id="H3Spt6IJbEtDC_gUVyOY-89" value="+ currentLong: number" style="text;strokeColor=none;fillColor=none;align=left;verticalAlign=top;spacingLeft=4;spacingRight=4;overflow=hidden;rotatable=0;points=[[0,0.5],[1,0.5]];portConstraint=eastwest;whiteSpace=wrap;html=1;fontSize=19;" vertex="1" parent="H3Spt6IJbEtDC_gUVyOY-84">
          <mxGeometry y="104" width="400" height="26" as="geometry" />
        </mxCell>
        <mxCell id="H3Spt6IJbEtDC_gUVyOY-90" value="+ isAvailable:boolean" style="text;strokeColor=none;fillColor=none;align=left;verticalAlign=top;spacingLeft=4;spacingRight=4;overflow=hidden;rotatable=0;points=[[0,0.5],[1,0.5]];portConstraint=eastwest;whiteSpace=wrap;html=1;fontSize=19;" vertex="1" parent="H3Spt6IJbEtDC_gUVyOY-84">
          <mxGeometry y="130" width="400" height="26" as="geometry" />
        </mxCell>
        <mxCell id="H3Spt6IJbEtDC_gUVyOY-95" value="+ licensePlate: varchar" style="text;strokeColor=none;fillColor=none;align=left;verticalAlign=top;spacingLeft=4;spacingRight=4;overflow=hidden;rotatable=0;points=[[0,0.5],[1,0.5]];portConstraint=eastwest;whiteSpace=wrap;html=1;fontSize=19;" vertex="1" parent="H3Spt6IJbEtDC_gUVyOY-84">
          <mxGeometry y="156" width="400" height="34" as="geometry" />
        </mxCell>
        <mxCell id="H3Spt6IJbEtDC_gUVyOY-96" value="Rider" style="swimlane;fontStyle=0;childLayout=stackLayout;horizontal=1;startSize=26;fillColor=#ffcd28;horizontalStack=0;resizeParent=1;resizeParentMax=0;resizeLast=0;collapsible=1;marginBottom=0;whiteSpace=wrap;html=1;fontSize=27;gradientColor=#ffa500;strokeColor=#d79b00;" vertex="1" parent="1">
          <mxGeometry x="1410" y="1203" width="390" height="182" as="geometry">
            <mxRectangle x="344" y="1180" width="60" height="30" as="alternateBounds" />
          </mxGeometry>
        </mxCell>
        <mxCell id="H3Spt6IJbEtDC_gUVyOY-97" value="+ id: number" style="text;strokeColor=none;fillColor=none;align=left;verticalAlign=top;spacingLeft=4;spacingRight=4;overflow=hidden;rotatable=0;points=[[0,0.5],[1,0.5]];portConstraint=eastwest;whiteSpace=wrap;html=1;fontSize=19;" vertex="1" parent="H3Spt6IJbEtDC_gUVyOY-96">
          <mxGeometry y="26" width="390" height="26" as="geometry" />
        </mxCell>
        <mxCell id="H3Spt6IJbEtDC_gUVyOY-98" value="+ name: varchar" style="text;strokeColor=none;fillColor=none;align=left;verticalAlign=top;spacingLeft=4;spacingRight=4;overflow=hidden;rotatable=0;points=[[0,0.5],[1,0.5]];portConstraint=eastwest;whiteSpace=wrap;html=1;fontSize=19;" vertex="1" parent="H3Spt6IJbEtDC_gUVyOY-96">
          <mxGeometry y="52" width="390" height="26" as="geometry" />
        </mxCell>
        <mxCell id="H3Spt6IJbEtDC_gUVyOY-101" value="+ creditCardPaymentSource: number" style="text;strokeColor=none;fillColor=none;align=left;verticalAlign=top;spacingLeft=4;spacingRight=4;overflow=hidden;rotatable=0;points=[[0,0.5],[1,0.5]];portConstraint=eastwest;whiteSpace=wrap;html=1;fontSize=19;" vertex="1" parent="H3Spt6IJbEtDC_gUVyOY-96">
          <mxGeometry y="78" width="390" height="26" as="geometry" />
        </mxCell>
        <mxCell id="H3Spt6IJbEtDC_gUVyOY-102" value="+ isAvailable:boolean" style="text;strokeColor=none;fillColor=none;align=left;verticalAlign=top;spacingLeft=4;spacingRight=4;overflow=hidden;rotatable=0;points=[[0,0.5],[1,0.5]];portConstraint=eastwest;whiteSpace=wrap;html=1;fontSize=19;" vertex="1" parent="H3Spt6IJbEtDC_gUVyOY-96">
          <mxGeometry y="104" width="390" height="26" as="geometry" />
        </mxCell>
        <mxCell id="H3Spt6IJbEtDC_gUVyOY-103" value="+ acceptanceToken: varchar" style="text;strokeColor=none;fillColor=none;align=left;verticalAlign=top;spacingLeft=4;spacingRight=4;overflow=hidden;rotatable=0;points=[[0,0.5],[1,0.5]];portConstraint=eastwest;whiteSpace=wrap;html=1;fontSize=19;" vertex="1" parent="H3Spt6IJbEtDC_gUVyOY-96">
          <mxGeometry y="130" width="390" height="26" as="geometry" />
        </mxCell>
        <mxCell id="H3Spt6IJbEtDC_gUVyOY-104" value="+ email: varchar" style="text;strokeColor=none;fillColor=none;align=left;verticalAlign=top;spacingLeft=4;spacingRight=4;overflow=hidden;rotatable=0;points=[[0,0.5],[1,0.5]];portConstraint=eastwest;whiteSpace=wrap;html=1;fontSize=19;" vertex="1" parent="H3Spt6IJbEtDC_gUVyOY-96">
          <mxGeometry y="156" width="390" height="26" as="geometry" />
        </mxCell>
        <mxCell id="H3Spt6IJbEtDC_gUVyOY-105" value="Invoice" style="swimlane;fontStyle=0;childLayout=stackLayout;horizontal=1;startSize=26;fillColor=#b0e3e6;horizontalStack=0;resizeParent=1;resizeParentMax=0;resizeLast=0;collapsible=1;marginBottom=0;whiteSpace=wrap;html=1;fontSize=27;strokeColor=#0e8088;" vertex="1" parent="1">
          <mxGeometry x="970" y="1560" width="350" height="208" as="geometry">
            <mxRectangle x="344" y="1180" width="60" height="30" as="alternateBounds" />
          </mxGeometry>
        </mxCell>
        <mxCell id="H3Spt6IJbEtDC_gUVyOY-106" value="+ id: number" style="text;strokeColor=none;fillColor=none;align=left;verticalAlign=top;spacingLeft=4;spacingRight=4;overflow=hidden;rotatable=0;points=[[0,0.5],[1,0.5]];portConstraint=eastwest;whiteSpace=wrap;html=1;fontSize=19;" vertex="1" parent="H3Spt6IJbEtDC_gUVyOY-105">
          <mxGeometry y="26" width="350" height="26" as="geometry" />
        </mxCell>
        <mxCell id="H3Spt6IJbEtDC_gUVyOY-107" value="+ name: varchar" style="text;strokeColor=none;fillColor=none;align=left;verticalAlign=top;spacingLeft=4;spacingRight=4;overflow=hidden;rotatable=0;points=[[0,0.5],[1,0.5]];portConstraint=eastwest;whiteSpace=wrap;html=1;fontSize=19;" vertex="1" parent="H3Spt6IJbEtDC_gUVyOY-105">
          <mxGeometry y="52" width="350" height="26" as="geometry" />
        </mxCell>
        <mxCell id="H3Spt6IJbEtDC_gUVyOY-108" value="+ basePrice: number" style="text;strokeColor=none;fillColor=none;align=left;verticalAlign=top;spacingLeft=4;spacingRight=4;overflow=hidden;rotatable=0;points=[[0,0.5],[1,0.5]];portConstraint=eastwest;whiteSpace=wrap;html=1;fontSize=19;" vertex="1" parent="H3Spt6IJbEtDC_gUVyOY-105">
          <mxGeometry y="78" width="350" height="26" as="geometry" />
        </mxCell>
        <mxCell id="H3Spt6IJbEtDC_gUVyOY-109" value="+ finalPrice: number" style="text;strokeColor=none;fillColor=none;align=left;verticalAlign=top;spacingLeft=4;spacingRight=4;overflow=hidden;rotatable=0;points=[[0,0.5],[1,0.5]];portConstraint=eastwest;whiteSpace=wrap;html=1;fontSize=19;" vertex="1" parent="H3Spt6IJbEtDC_gUVyOY-105">
          <mxGeometry y="104" width="350" height="26" as="geometry" />
        </mxCell>
        <mxCell id="H3Spt6IJbEtDC_gUVyOY-110" value="+ totalKm:number" style="text;strokeColor=none;fillColor=none;align=left;verticalAlign=top;spacingLeft=4;spacingRight=4;overflow=hidden;rotatable=0;points=[[0,0.5],[1,0.5]];portConstraint=eastwest;whiteSpace=wrap;html=1;fontSize=19;" vertex="1" parent="H3Spt6IJbEtDC_gUVyOY-105">
          <mxGeometry y="130" width="350" height="26" as="geometry" />
        </mxCell>
        <mxCell id="H3Spt6IJbEtDC_gUVyOY-111" value="+ totalMin: number" style="text;strokeColor=none;fillColor=none;align=left;verticalAlign=top;spacingLeft=4;spacingRight=4;overflow=hidden;rotatable=0;points=[[0,0.5],[1,0.5]];portConstraint=eastwest;whiteSpace=wrap;html=1;fontSize=19;" vertex="1" parent="H3Spt6IJbEtDC_gUVyOY-105">
          <mxGeometry y="156" width="350" height="26" as="geometry" />
        </mxCell>
        <mxCell id="H3Spt6IJbEtDC_gUVyOY-112" value="+ paymentReference: varchar" style="text;strokeColor=none;fillColor=none;align=left;verticalAlign=top;spacingLeft=4;spacingRight=4;overflow=hidden;rotatable=0;points=[[0,0.5],[1,0.5]];portConstraint=eastwest;whiteSpace=wrap;html=1;fontSize=19;" vertex="1" parent="H3Spt6IJbEtDC_gUVyOY-105">
          <mxGeometry y="182" width="350" height="26" as="geometry" />
        </mxCell>
        <mxCell id="H3Spt6IJbEtDC_gUVyOY-115" value="" style="edgeStyle=entityRelationEdgeStyle;fontSize=12;html=1;endArrow=ERzeroToMany;endFill=1;rounded=0;entryX=0;entryY=0.5;entryDx=0;entryDy=0;exitX=1.008;exitY=-0.006;exitDx=0;exitDy=0;exitPerimeter=0;strokeWidth=2;" edge="1" parent="1" source="H3Spt6IJbEtDC_gUVyOY-89" target="H3Spt6IJbEtDC_gUVyOY-78">
          <mxGeometry width="100" height="100" relative="1" as="geometry">
            <mxPoint x="385" y="1510" as="sourcePoint" />
            <mxPoint x="485" y="1410" as="targetPoint" />
          </mxGeometry>
        </mxCell>
        <mxCell id="H3Spt6IJbEtDC_gUVyOY-116" value="" style="edgeStyle=entityRelationEdgeStyle;fontSize=24;html=1;endArrow=ERzeroToMany;endFill=1;rounded=0;entryX=1;entryY=0.5;entryDx=0;entryDy=0;exitX=0;exitY=0.5;exitDx=0;exitDy=0;strokeWidth=2;jumpSize=22;" edge="1" parent="1" source="H3Spt6IJbEtDC_gUVyOY-101" target="H3Spt6IJbEtDC_gUVyOY-78">
          <mxGeometry width="100" height="100" relative="1" as="geometry">
            <mxPoint x="418" y="1313" as="sourcePoint" />
            <mxPoint x="540" y="1313" as="targetPoint" />
          </mxGeometry>
        </mxCell>
        <mxCell id="H3Spt6IJbEtDC_gUVyOY-117" value="" style="edgeStyle=entityRelationEdgeStyle;fontSize=12;html=1;endArrow=ERmandOne;startArrow=ERmandOne;rounded=0;exitX=1;exitY=0.5;exitDx=0;exitDy=0;strokeWidth=2;" edge="1" parent="1" source="H3Spt6IJbEtDC_gUVyOY-83" target="H3Spt6IJbEtDC_gUVyOY-105">
          <mxGeometry width="100" height="100" relative="1" as="geometry">
            <mxPoint x="390" y="1570" as="sourcePoint" />
            <mxPoint x="490" y="1470" as="targetPoint" />
          </mxGeometry>
        </mxCell>
      </root>
    </mxGraphModel>
  </diagram>
</mxfile>
